<svg width="104" height="56" fill="none" xmlns="http://www.w3.org/2000/svg">
  <path d="M53.53 27.443a2.953 2.953 0 0 1-.607-1.992v-2.888c0-.885.201-1.558.603-2.018.402-.46 1.092-.69 2.07-.688.92 0 1.572.196 1.958.588.42.5.625 1.11.578 1.727v.679h-1.644v-.688c.006-.224-.01-.45-.048-.672a.652.652 0 0 0-.234-.4.952.952 0 0 0-.596-.156 1.007 1.007 0 0 0-.627.165.769.769 0 0 0-.272.44 3.342 3.342 0 0 0-.065.715v3.505a1.79 1.79 0 0 0 .211.984.772.772 0 0 0 .328.238c.133.052.28.071.425.056.21.015.42-.042.582-.159a.706.706 0 0 0 .245-.426c.038-.232.056-.467.051-.702v-.711h1.645v.65a2.643 2.643 0 0 1-.57 1.815c-.377.429-1.02.643-1.967.643-.946 0-1.661-.229-2.067-.705ZM60.376 27.473c-.415-.45-.623-1.105-.623-1.972v-3.038c0-.858.208-1.507.623-1.948.416-.44 1.11-.66 2.084-.658.967 0 1.658.22 2.073.658.416.441.627 1.09.627 1.948v3.038c0 .858-.211 1.516-.633 1.969-.423.452-1.11.678-2.067.678-.957 0-1.665-.229-2.084-.675Zm2.85-.73c.149-.28.217-.59.197-.898v-3.72a1.65 1.65 0 0 0-.194-.881.777.777 0 0 0-.335-.242.908.908 0 0 0-.434-.052.922.922 0 0 0-.435.052.79.79 0 0 0-.338.242c-.15.275-.218.578-.197.881v3.738c-.021.309.047.617.197.899.096.094.214.17.347.222a1.159 1.159 0 0 0 .845 0c.133-.052.251-.128.347-.223v-.017ZM67.138 19.946h1.77l1.332 5.605 1.361-5.605h1.723l.174 8.09h-1.274l-.136-5.622-1.314 5.622h-1.021l-1.362-5.643-.126 5.643h-1.287l.16-8.09ZM75.483 19.946h2.758c1.588 0 2.383.766 2.383 2.297 0 1.467-.837 2.2-2.51 2.198h-.939v3.595h-1.702l.01-8.09Zm2.356 3.458c.168.018.339.005.5-.04.162-.044.31-.117.436-.216a1.31 1.31 0 0 0 .245-.914 2.53 2.53 0 0 0-.081-.734.597.597 0 0 0-.126-.222.703.703 0 0 0-.215-.163 1.762 1.762 0 0 0-.76-.13h-.66v2.419h.66ZM83.079 19.946h1.828l1.876 8.09h-1.587l-.37-1.865h-1.631l-.382 1.865h-1.61l1.876-8.09Zm1.563 5.288-.637-3.396-.637 3.396h1.273ZM88.298 19.946h1.192l2.28 4.615v-4.615h1.414v8.09H92.05l-2.295-4.818v4.818h-1.46l.003-8.09ZM96.493 24.951l-1.896-4.994h1.597l1.157 3.208 1.086-3.208H100l-1.873 4.994v3.085h-1.634v-3.085ZM56.158 31.573v.424h-1.39v3.287h-.581v-3.287H52.79v-.424h3.367ZM60.512 35.284h-.45a.2.2 0 0 1-.125-.035.195.195 0 0 1-.075-.085l-.402-.881h-1.927l-.402.881a.244.244 0 0 1-.06.1.208.208 0 0 1-.127.035h-.45l1.703-3.71h.592l1.723 3.695Zm-2.819-1.377H59.3l-.68-1.51a2.703 2.703 0 0 1-.127-.35c-.024.07-.044.138-.064.197l-.062.156-.674 1.507ZM63.447 34.92c.107.005.214.005.32 0 .092-.008.183-.023.273-.044a2.08 2.08 0 0 0 .245-.068c.075-.026.15-.058.228-.09v-.835h-.681a.142.142 0 0 1-.05-.007.128.128 0 0 1-.042-.023.086.086 0 0 1-.026-.03.075.075 0 0 1-.008-.037V33.5h1.321v1.422a2.57 2.57 0 0 1-.718.303c-.14.035-.282.06-.426.076a5.153 5.153 0 0 1-.497.023 2.599 2.599 0 0 1-.858-.138 2.094 2.094 0 0 1-.681-.387 1.792 1.792 0 0 1-.44-.588 1.854 1.854 0 0 1-.156-.77 1.923 1.923 0 0 1 .153-.776c.098-.22.248-.42.44-.587.194-.167.426-.298.68-.385.292-.095.602-.142.913-.138.159 0 .317.01.473.032.139.02.274.051.405.094.12.039.234.088.34.147.105.058.204.123.297.194l-.163.23a.143.143 0 0 1-.056.05.17.17 0 0 1-.077.02.222.222 0 0 1-.106-.03 2.103 2.103 0 0 1-.166-.088 1.51 1.51 0 0 0-.229-.1 2.15 2.15 0 0 0-.313-.082 2.636 2.636 0 0 0-.432-.032 2.015 2.015 0 0 0-.657.103c-.19.065-.36.165-.5.293-.142.134-.25.29-.318.462a1.733 1.733 0 0 0 0 1.237c.075.174.191.333.341.467.14.127.31.227.497.294.217.064.446.089.674.073ZM68.874 34.861h1.86v.423h-2.428v-3.71h.582l-.014 3.287ZM72.667 35.284h-.582v-3.71h.582v3.71ZM74.832 31.591a.28.28 0 0 1 .09.068l2.488 2.797a.884.884 0 0 1 0-.132v-2.765h.507v3.725h-.293a.276.276 0 0 1-.126-.02.33.33 0 0 1-.092-.07l-2.485-2.795V35.284h-.487v-3.71h.303c.033 0 .066.006.096.017ZM82.204 31.573v.409H80.14v1.225h1.671v.394h-1.671v1.266h2.063v.408H79.54v-3.701h2.663ZM21.195 8.659l25.852 6.334v22.195l-25.852-6.33v-22.2Zm-1.658-1.892v25.168l29.165 7.148V13.917l-29.165-7.15Z" fill="#404BBF"/>
  <path d="M35.168 50.767 6 43.613V18.447l29.168 7.15v25.17Z" fill="#404BBF"/>
  <path d="m20.02 8.374 25.515 6.254-10.85 9.366-25.519-6.258L20.02 8.374Zm-.483-1.607L6 18.447l29.168 7.151 13.534-11.68-29.165-7.151ZM36.81 49.35l11.892-10.264-11.893-2.917v13.182Z" fill="#404BBF"/>
</svg>
